<?xml version="1.0" encoding="UTF-8"?>
<svg width="57px" height="81px" viewBox="0 0 57 81" version="1.1" xmlns="http://www.w3.org/2000/svg" xmlns:xlink="http://www.w3.org/1999/xlink">
    <title>ECPAT logo white</title>
    <g id="Pages" stroke="none" stroke-width="1" fill="none" fill-rule="evenodd">
        <g id="ECPAT-logo-white" transform="translate(0.000538, -0.000023)" fill="#E2EDE8">
            <path d="M38.7919953,7.78643806 C37.7329245,7.54176825 36.6324481,6.91046637 36.2708208,5.72932957 C36.5824387,4.83534373 37.6272594,4.31347108 38.4970472,4.08143806 C40.0580943,3.83246637 40.7810802,5.27386731 41.9686698,5.76024939 C41.785033,6.1272541 41.8113821,6.66660316 41.7801934,7.04624467 C40.9432075,7.81816448 39.924467,8.03729184 38.7919953,7.78643806 M39.8007877,2.35423052 C39.7728255,1.81488146 39.606934,1.03382014 40.1110613,0.540985235 C41.1322217,0.322126744 42.4969953,0.591801272 43.1167358,1.41131071 C43.8730613,2.47280127 44.0803585,3.64130127 43.9728113,4.8590041 C43.4377642,4.81356542 42.8914245,4.91949939 42.4744104,5.26580127 C41.1056038,5.07140976 40.0704623,3.68055599 39.8007877,2.35423052 M44.3478821,5.88742391 C44.3726179,6.50286259 43.7891745,6.98951354 43.2342311,7.17261259 C42.7666698,7.20837203 42.2458726,7.01021637 42.2162972,6.47059844 C42.2601226,5.93743335 42.8438349,5.45185788 43.3920566,5.34431071 C43.7808396,5.30290505 44.2349575,5.41744278 44.3478821,5.88742391 M45.038066,2.34508901 C45.8145566,1.41399939 46.8593774,0.890782405 48.0128208,0.912560706 C48.7140283,0.820607876 49.0447358,1.46266448 49.0761934,2.00174467 C49.20525,3.1632541 48.6551462,4.18817863 47.6017217,4.78640976 C46.4665613,4.53636259 45.4470142,4.75602769 44.641217,5.14561731 C44.1801085,4.26453712 44.5156557,3.06565505 45.038066,2.34508901 M49.799717,6.96961731 C49.8147736,7.66141448 49.1520142,8.21689561 48.5059245,8.54437674 C46.9755283,9.33296637 45.3655472,8.35132957 44.2220519,7.33473995 C44.4215519,6.81313618 44.9192264,6.39612203 44.8267358,5.6989475 C45.7258302,5.08646637 46.9628915,5.03833901 48.0128208,5.35963618 C48.7591981,5.65270222 49.4832594,6.17645693 49.799717,6.96961731 M44.791783,12.2891692 C43.9577547,12.1404852 43.199816,11.9979852 42.6411085,11.3365701 C41.8086934,10.2694333 41.8673066,8.73984373 42.2759858,7.54848995 C42.6456792,7.73400882 43.1887925,7.70362674 43.5896745,7.50923523 L45.5489151,8.90304656 C45.8392925,10.0024475 45.8591887,11.5371456 44.791783,12.2891692 M55.1090519,59.4028956 C46.341,53.893523 37.3008538,48.9017211 27.7845425,44.9410277 C33.4291557,37.6052352 38.1924198,29.7352022 40.2221038,20.5592777 L39.5956415,19.8147824 C39.1797028,19.2410183 39.4200708,18.2661032 38.8360896,17.9085088 L38.9847736,15.3152777 L40.8246368,13.6337777 C41.2636981,12.9820418 42.7666698,13.4170701 42.2577028,12.22249 C41.6083868,11.7081456 40.5796981,12.0033626 39.9494717,12.1783956 L41.4916981,9.47412203 C41.5559575,9.63409844 41.6255943,9.71690976 41.6129575,9.8674758 C41.6807123,10.870622 42.3515377,12.0017494 43.3979717,12.399405 C43.9201132,12.5972918 44.7401604,12.8970796 45.237566,12.4787211 C46.0745519,11.70949 46.3590142,10.200872 46.0769717,9.02565033 C46.8289953,9.24397108 47.6686698,9.31629656 48.3841274,9.07082014 C49.1762123,8.83179656 49.938184,8.05503712 50.2334009,7.31323052 C50.2613632,6.08988146 49.0899057,5.37657486 48.1276274,4.91035788 C49.3493632,4.17123995 49.6276415,2.73924939 49.3568915,1.41131071 C49.3324245,0.795334291 48.6712783,0.433706933 48.0544953,0.455754103 C46.5117311,0.476994669 44.9662783,1.41857014 44.3121226,2.74220693 C44.0007736,1.87134373 43.4071132,0.746400329 42.444566,0.282334291 C41.6949623,0.062669197 40.5611462,-0.187646841 39.8333208,0.209471084 C39.0527972,1.21611259 39.2283679,2.76317863 39.8346651,3.73621165 L39.7456698,3.88274467 C38.3187877,3.45255599 37.0413962,3.95641448 36.101434,5.02597108 C35.7575519,5.45615976 35.8573019,6.0769758 36.1307406,6.48431071 C37.0795755,7.94533901 39.0358585,8.49678712 40.5928726,8.32498052 C40.0067406,9.72981542 39.5004623,11.1440607 39.0635519,12.6386975 L38.7995236,12.9995183 C38.1252028,11.8683909 37.3239764,10.4963579 35.8414387,10.675155 L35.8298774,10.827872 C37.1911557,12.0186881 37.1911557,13.7808484 38.1561226,15.0921173 C37.6003726,15.2736032 37.5915,14.5049098 37.1242075,14.5425513 C36.2842642,14.4699569 35.4306085,14.5487352 34.7162264,14.7958249 C35.6236557,15.8707588 37.1516321,16.0016975 37.9636132,17.2981786 L37.5990283,19.7182588 C37.2032547,19.8381739 36.6762736,19.7171833 36.2721651,19.9121126 L29.9725896,27.7256833 C27.0287547,31.4591833 22.743,32.0109003 18.4472972,31.7947305 L18.1176651,33.8370513 C15.7766321,32.4082871 13.5399198,30.6837683 11.196467,29.2555418 C9.20576887,28.2405654 6.94674057,26.74324 4.50407547,27.3764239 C3.75205189,27.158372 3.18742925,26.5738532 2.33162264,26.6523626 C1.34837264,27.3347494 2.9707217,28.1639381 2.82176887,28.9939333 C2.6505,29.2111786 2.27973113,29.0253909 2.11383962,29.1649333 C6.53241509,35.0628201 13.2753538,39.0162541 16.3856179,45.8003296 C14.0099009,51.8810466 7.48958491,55.9968767 2.21332075,59.9887588 L2.34560377,60.23074 C3.25007547,62.2246645 0.595542453,60.8459098 0,61.4858154 L2.63248585,64.0107541 C9.83411321,61.7931315 17.051066,59.4254805 24.5756038,57.9249286 C32.3929387,57.5275418 40.14225,59.6494475 47.7286274,60.9886786 C50.2382406,61.3602541 52.7932925,62.1163107 55.4316934,61.8813201 C55.8997925,60.926839 56.4566179,59.8239428 56.7784528,58.7767022 C56.1570991,58.878872 55.6631887,59.2216786 55.1090519,59.4028956" id="Fill-1"></path>
            <path d="M29.0100425,19.2880701 C30.0115755,21.059372 30.4358491,23.243655 29.4189906,25.2249428 C28.2494151,28.0383767 25.057684,30.2159381 22.0912642,30.6515041 C19.6381132,30.5176079 16.9556179,30.3630088 15.2518019,28.683122 C14.4339057,27.463806 15.0364387,25.8277447 14.6847594,24.5715937 C14.4478868,22.8653579 13.8872972,20.4399003 15.2359387,19.0985183 C16.4071274,18.0502022 17.7458208,17.7057824 19.0355802,17.051089 L18.4559009,16.6182116 C20.634,15.5010654 23.5108868,16.0554711 26.0299104,16.3485371 C27.3043443,16.7644758 28.3505094,18.0039569 29.0100425,19.2880701" id="Fill-2"></path>
            <path d="M3.72408962,70.0253296 C3.72408962,70.0253296 3.99510849,70.4004003 5.29535377,70.0788343 C6.59479245,69.7540418 7.62428774,69.1891503 7.81491509,68.7046503 C8.00419811,68.2198815 7.67806132,67.4909805 7.29976415,67.3293909 C6.91904717,67.168339 5.94574528,66.8451598 5.26981132,67.2484616 C4.59091981,67.6539145 4.1031934,68.3274286 3.91552358,68.8920513 C3.72408962,69.4588249 3.67112264,69.9441315 3.67112264,69.9441315 M1.92267453,74.5484947 C1.57610377,73.5765371 1.27873585,72.57124 1.20103302,71.5409381 C1.1550566,70.9518484 1.17817925,70.3347966 1.25615094,69.7492022 C1.40644811,68.6011362 1.91810377,67.6633249 2.77175943,66.8830701 C3.93111792,65.8231928 5.44645755,65.0781598 7.04971698,65.3005135 C7.51243868,65.3639664 7.98241981,65.4048343 8.42632075,65.5527116 C8.75568396,65.6632164 9.08612264,65.871589 9.33616981,66.107655 C9.80883962,66.5558579 10.0777075,67.1495183 10.2801651,67.7571598 C10.5070896,68.4352447 10.5089717,69.1660277 10.04625,69.7478579 C9.59670283,70.3119428 8.892,70.6313579 8.265,70.9566881 C7.45490094,71.378273 6.59371698,71.6718767 5.74382547,72.0009711 C5.05310377,72.2671503 4.09270755,72.6131833 3.88110849,73.4114522 C3.63133019,74.3656645 4.65786792,75.3774145 5.3789717,75.8374475 C6.39314151,76.4811173 7.62563208,77.0228862 8.81644811,77.2199664 C10.2777453,77.4619475 11.902783,78.405405 12.3897028,78.7280466 C12.8763538,79.0525701 12.9591651,79.4838343 12.688684,79.6454239 C12.4173962,79.8070135 11.9560189,79.9414475 10.1430425,79.779589 C9.38241509,79.7134475 8.61210849,79.5655701 7.87809906,79.3596173 C5.53867925,78.7016975 3.24496698,77.4014522 2.16734434,75.1375843 C2.07619811,74.9439994 1.9941934,74.7474569 1.92267453,74.5484947" id="Fill-3"></path>
            <path d="M19.7660943,64.4998249 C19.3668255,64.3914711 18.9965943,64.1908956 18.6086179,64.0492022 C18.2104245,63.9015937 17.7977123,63.7741503 17.3710189,63.7453815 C17.1470519,63.7295183 16.9198585,63.7424239 16.6996557,63.7970041 C16.4579434,63.8569616 16.2073585,64.0016126 16.0274858,64.1726126 C15.8422358,64.3463013 15.6715047,64.5624711 15.5373396,64.7789098 C14.8068255,65.9546692 14.2860283,67.2159286 14.357816,68.6221079 C14.3798632,69.031056 14.4293349,69.448339 14.5086509,69.8511032 C14.5635,70.1213154 14.6291038,70.3893767 14.7081509,70.6542116 C14.815967,71.019872 14.9654575,71.378273 15.1340377,71.7213484 C15.8492264,72.8285466 16.8268302,72.9584098 17.3089104,73.0344994 C17.7926038,73.1116645 18.2865142,73.0635371 18.7680566,73.0178296 C19.0369245,72.9912116 19.3079434,72.9667447 19.5773491,72.9621739 C19.8284717,72.9584098 20.1277217,72.9089381 20.369434,72.9920183 C20.7552594,73.1264522 20.3293726,73.5112022 20.1624057,73.6402588 C19.9400519,73.81099 19.6862406,73.9217635 19.4523255,74.0677588 C19.0541321,74.3153862 18.6105,74.5277918 18.1507358,74.6377588 C17.8974623,74.6982541 17.6269811,74.7211079 17.3675236,74.7055135 C17.1002689,74.6880371 16.8115047,74.6278107 16.5606509,74.5334381 C16.3165189,74.4377211 16.0737311,74.317806 15.8478821,74.1876739 C15.5706792,74.0263532 15.2846038,73.8540088 15.0353632,73.6531645 C14.8315613,73.4880796 14.6331368,73.3084758 14.453533,73.1165041 C13.3186415,71.9052541 12.7101934,70.168905 12.6822311,69.0668154 C12.658033,68.104806 12.6289953,67.0911739 12.9381934,66.1657305 C13.075316,65.7554381 13.2906792,65.3819805 13.4934057,65.0047588 C13.8907925,64.2669852 14.2860283,63.506089 14.923783,62.9433484 C15.3182123,62.5957022 15.8344387,62.3373201 16.3442123,62.2147164 C16.7155189,62.1257211 17.163184,62.0808201 17.5441698,62.1453484 C18.4749906,62.2961833 19.4372689,62.901405 19.8634245,63.7596315 C19.9365566,63.9093909 20.0118396,64.0596881 20.0521698,64.224773 C20.0691085,64.2917211 20.0997594,64.3877069 20.0462547,64.4482022 C19.9760802,64.5307447 19.8693396,64.5277871 19.7660943,64.4998249" id="Fill-4"></path>
            <path d="M35.1622783,66.2681692 C34.8673302,66.4647116 34.7328962,66.8462352 34.5721132,67.1454852 C34.4242358,67.4304852 34.3072783,67.7305418 34.2263491,68.0435041 C34.0728255,68.6285607 34.0091038,69.2391598 33.9402736,69.8387352 C33.8663349,70.4633154 33.7894387,71.1209664 33.9359717,71.7401692 C34.0518538,72.2238626 34.3481462,72.7379381 34.8856132,72.8169852 C35.4386745,72.8976456 35.9460283,72.5034852 36.3665377,72.2031598 C36.2850708,72.2563956 36.205217,72.3120513 36.1374623,72.3792683 C36.5977642,71.9407447 37.0169292,71.486089 37.3239764,70.9249616 C37.6210755,70.3762022 37.8426226,69.7806598 38.0418538,69.1904947 C38.2198443,68.6672777 38.4365519,68.0596362 38.3292736,67.4985088 C38.2343632,66.9879286 37.8294481,66.6884098 37.3632311,66.5227871 C37.0814575,66.4214239 36.7859717,66.3638862 36.4907547,66.3205984 C36.0576085,66.256339 35.578217,66.1044286 35.1622783,66.3240937 M34.0190519,65.3462211 C34.5425377,64.9318956 35.1442642,64.6294192 35.8236934,64.6205466 C36.5058113,64.6132871 37.139533,64.8848437 37.7837406,65.0617588 C37.9687217,65.1117683 38.1558538,65.17549 38.3478255,65.1908154 C38.6615943,65.2150135 38.9858491,65.0372918 39.2488019,64.8848437 C39.4087783,64.7910088 39.5711745,64.6987871 39.7069528,64.5734947 C39.9494717,64.3503343 40.0572877,64.0107541 40.2815236,63.7719994 C40.3347594,63.7147305 40.445533,63.5862116 40.5380236,63.6028815 C40.7342972,63.6375654 40.7098302,64.0233909 40.7270377,64.1572871 C40.7566132,64.4046456 40.775434,64.650122 40.7958679,64.8980183 C40.8372736,65.4494664 40.8980377,66.0030654 40.8625472,66.5558579 C40.8275943,67.0876786 40.6928915,67.6065937 40.5659858,68.1225513 C40.4920472,68.4228767 40.421066,68.7234711 40.3656792,69.0275607 C40.2815236,69.5187824 40.2815236,70.0196833 40.1989811,70.5111739 C40.1245047,70.950773 39.9887264,71.3836503 39.8997311,71.8205607 C39.8548302,72.0402258 39.8292877,72.259622 39.8126179,72.4838579 C39.7728255,73.0178296 39.7749764,73.5587918 39.8045519,74.0927635 C39.8252547,74.4172871 39.8292877,74.73724 39.8798349,75.056655 C39.9217783,75.3024003 39.9473208,75.5314758 40.0535236,75.7605513 C40.1043396,75.8675607 40.2008632,75.9780654 40.2877075,76.0587258 C40.3551934,76.1240607 40.527,76.2332211 40.4941981,76.3340466 C40.3791226,76.39024 40.3148632,76.3512541 40.2401179,76.3361975 C40.1648349,76.320872 39.9736698,76.2539239 39.8045519,76.1278249 C39.7080283,76.038023 39.6596321,75.9721503 39.6133868,75.917839 C39.5684858,75.8616456 39.5260047,75.8334145 39.3173632,75.6008437 C39.2211085,75.49249 39.1245849,75.3913956 39.0221462,75.2911079 C38.91675,75.1840984 38.8054387,75.0781645 38.6930519,74.9641645 C38.5561981,74.8412918 38.3989104,74.6329192 38.2647453,74.4546598 C38.1988726,74.3643201 38.1456368,74.2653767 38.124934,74.1527211 C38.1101462,74.0626503 38.1418726,73.8878862 38.0405094,73.83949 C37.927316,73.7870607 37.6108585,74.0906126 37.5180991,74.1486881 C36.9018538,74.5388154 36.2044104,74.8138673 35.4884151,74.9655088 C35.3179528,75.0026126 35.1405,75.0321881 34.9689623,75.0192824 C34.2190896,74.9628201 33.0021934,74.6057635 32.6126038,73.3388579 C32.3660519,72.5231126 32.1853726,71.6799428 32.1033679,70.8338154 C32.0280849,70.040655 32.0253962,69.2259852 32.1934387,68.4454616 C32.2905,67.998872 32.4416038,67.5493249 32.6335755,67.1344616 C32.7631698,66.8534947 32.9145425,66.5811315 33.0793585,66.3211362 C33.1817972,66.1573956 33.3017123,65.9767164 33.4452877,65.8441645 C33.6248915,65.6766598 33.8174009,65.5064664 34.0190519,65.3462211" id="Fill-5"></path>
            <path d="M44.6683726,66.0952871 C44.8097972,66.0735088 44.950684,66.0509239 45.0872689,66.0339852 C45.4263113,65.991773 45.7621274,65.8522305 46.0159387,65.6204664 C46.1966179,65.454306 46.3114245,65.2357164 46.3651981,64.9974994 C46.4813491,64.475089 46.5862075,63.9451503 46.6781604,63.4192447 C46.7558632,62.9492635 46.8496981,62.484122 46.9873585,62.0278532 C47.0193538,61.9229947 47.0155896,61.8157164 47.1242123,61.7557588 C47.2320283,61.6974145 47.3834009,61.7259145 47.5000896,61.7369381 C47.6468915,61.7503815 47.8074057,61.731023 47.9520566,61.7759239 C48.0918679,61.8213626 48.1410708,61.9125088 48.1504811,62.0520513 C48.1617736,62.2397211 48.1617736,62.431155 48.1633868,62.618556 C48.1658066,63.2143673 48.2203868,63.8424428 48.3241698,64.4274994 C48.3448726,64.5436503 48.3537453,64.6598013 48.3973019,64.7724569 C48.5056557,65.0631032 48.9990283,64.9789475 49.2345566,64.9719569 C50.0212642,64.9469522 50.778934,64.6253862 51.5290755,65.0394428 C51.6852877,65.1273626 51.8756462,65.2572258 51.9869575,65.4026833 C52.0340094,65.4650607 52.1028396,65.6148201 52.0576698,65.6957494 C51.8732264,66.0253815 48.730967,66.2471975 48.4362877,67.3146032 C48.1397264,68.3814711 47.8816132,71.8762164 47.6603349,73.2369569 C47.544184,73.9389711 47.4084057,74.6396409 47.3382311,75.3475701 C47.2766604,75.9662352 47.202184,76.5615088 47.3565142,77.1726456 C47.4266887,77.4409758 47.7149151,77.3740277 47.8931745,77.2965937 C48.1316604,77.1954994 48.374717,77.1065041 48.6134717,77.0035277 C48.9111085,76.8760843 49.2039057,76.7408437 49.5082642,76.6265749 C49.651033,76.5744145 49.7962217,76.5217164 49.9451745,76.4846126 C49.9731368,76.4770843 50.1747877,76.4216975 50.1358019,76.5104239 C49.9621132,76.9131881 49.6642075,77.2438956 49.4152358,77.6006833 C49.1493255,77.9835513 48.8858349,78.368839 48.6083632,78.7457918 C48.4510755,78.9606173 48.2910991,79.1743673 48.1230566,79.3843532 C48.0017972,79.5384145 47.8654811,79.6844098 47.6995896,79.7954522 C47.3834009,80.0070513 46.8989009,80.1530466 46.5179151,80.1170183 C46.165967,80.0842164 46.0565377,79.8809522 45.8478962,79.6376267 C45.5620896,79.3063815 45.3951226,78.8810324 45.4018443,78.4427777 C45.4053396,78.1881598 45.4384104,77.927089 45.4620708,77.6735466 C45.532783,76.8967871 45.624467,76.1224475 45.7096981,75.3475701 C45.7562123,74.9388909 45.803533,74.5291362 45.8478962,74.1199192 C45.9479151,73.1987777 46.0697123,72.2803249 46.1804858,71.3621409 C46.2124811,71.1061786 46.2444764,70.8499475 46.2724387,70.5937164 C46.3676179,69.7535041 46.4786604,68.792839 46.0495472,68.0144664 C45.9637783,67.85449 45.8352594,67.7103767 45.6637217,67.644773 C45.0722123,67.4245701 43.9249528,67.6079381 43.5189623,67.3146032 C43.112434,67.0199239 42.8535142,66.7989145 42.9645566,66.541339 C43.0745236,66.2845701 43.0745236,66.2106315 43.5920943,66.2106315 C43.9467311,66.2106315 44.3121226,66.1514805 44.6683726,66.0952871" id="Fill-6"></path>
            <path d="M26.5275849,65.6858013 C26.2920566,65.737155 25.8441226,65.9181032 25.8441226,65.9181032 C25.8441226,65.9181032 25.4268396,66.0869522 25.2512689,66.2262258 M24.6976698,68.625872 C24.7466038,68.7966032 24.805217,68.9667966 24.900934,69.102306 C25.0431651,69.3034192 25.2585283,69.4270984 25.4666321,69.5523909 C25.9384953,69.8355088 26.3915377,70.1062588 26.9558915,70.1479333 C27.2008302,70.1659475 27.4508774,70.1414805 27.6866745,70.0823296 C27.8071274,70.053023 27.9232783,70.0156503 28.0383538,69.9707494 C28.1545047,69.9231598 28.280066,69.875839 28.377934,69.790339 C28.5535047,69.6403107 28.6371226,69.4131173 28.7191274,69.2036692 C28.8129623,68.9657211 28.8801792,68.7232022 28.9143255,68.4680466 C29.0113868,67.7084947 28.9430943,66.7518626 28.3502406,66.1899286 C28.2112358,66.0554947 28.025717,65.9097683 27.8479953,65.8283013 C27.4377028,65.6468154 26.9685283,65.5943862 26.5275849,65.6858013 C26.2920566,65.737155 26.0654009,65.8245371 25.8441226,65.9181032 C25.6387075,66.0027966 25.4268396,66.0869522 25.2512689,66.2262258 C25.0837642,66.3633484 24.984283,66.5566645 24.8799623,66.7419145 C24.7651557,66.9508249 24.6409387,67.1605418 24.5780236,67.3928437 C24.5089245,67.6482683 24.5301651,67.9241267 24.5820566,68.1798201 C24.6140519,68.3293107 24.6557264,68.4788013 24.6976698,68.625872 M23.1258679,63.526523 C23.3928538,63.6601503 23.5772972,63.9053579 23.8050283,64.0889947 C24.2591462,64.4525041 24.7651557,64.5654286 25.3321981,64.4823484 C26.5652264,64.3027447 27.8151934,64.1059333 29.0514481,64.4073343 C29.7972877,64.5866692 29.9215047,65.4470466 30.0263632,66.0799616 C30.2008585,67.1344616 30.2963066,68.1956833 30.1508491,69.2598626 C30.0629292,69.875839 29.9225802,70.5240796 29.6666179,71.0962305 C29.515783,71.4363484 29.2582075,71.7549569 28.8960425,71.8829381 C27.9617264,72.2106881 27.1247406,71.4643107 26.2167736,71.3844569 C25.9086509,71.3583767 25.5983774,71.3927918 25.2924057,71.4274758 C25.0751604,71.4522116 24.9388443,71.5110937 24.9073868,71.7474286 C24.7554764,72.8411833 24.758434,73.9499947 24.5998019,75.0415984 C24.5368868,75.4728626 24.4903726,75.9095041 24.3360425,76.3200654 C24.2102123,76.6505041 23.9512925,76.9045843 23.6719387,77.1091928 C23.5686934,77.1839381 23.4116745,77.3250937 23.2772406,77.3315466 C23.0323019,77.3414947 23.1121557,76.8392494 23.1178019,76.7263249 C23.1312453,76.5429569 23.1016698,76.3547494 23.1100047,76.1692305 C23.1508726,75.0550418 23.1264057,73.9403154 23.1473774,72.8250513 C23.1635094,72.1276079 23.1874387,71.422905 23.2514292,70.724655 C23.3159575,70.03474 23.4549623,69.3569239 23.5283632,68.6691598 C23.5732642,68.2637069 23.5885896,67.8547588 23.5404623,67.4495749 C23.4985189,67.0825701 23.4251179,66.7206739 23.3705377,66.3558201 C23.2912217,65.84524 23.2121745,65.3338532 23.0946792,64.8286503 C23.0016509,64.4291126 22.9290566,63.9077777 23.1258679,63.526523" id="Fill-7"></path>
        </g>
    </g>
</svg>